<?xml version="1.0" encoding="UTF-8"?>
<svg id="book" xmlns="http://www.w3.org/2000/svg" version="1.1" viewBox="0 0 512 512">
  <!-- Generator: Adobe Illustrator 29.3.1, SVG Export Plug-In . SVG Version: 2.1.0 Build 151)  -->
  <defs>
    <style>
      .st0 {
        fill: #981b1b;
      }

      .st1 {
        fill: #d32424;
      }
    </style>
  </defs>
  <g>
    <path class="st0" d="M442.5,45.4v356.2c0,9.6-8.2,17.4-18.4,17.4H103.7c-9,0-17.7,3.4-24.2,9.5-6.4,5.9-10,14.3-10,23V45.4c0-9.6,8.2-17.4,18.4-17.4h336.4c10.1,0,18.3,7.8,18.3,17.4ZM256.5,262.8c78.1-31.7,104.5-88.7,96.2-131.4-5.8-28.6-26.1-47.2-52.5-47.2s-30.6,6-46.2,17.3c-15.8-11.8-31.7-17.8-46.5-17.8-26.4,0-46.7,18.6-52.3,47.7-8.3,43.2,18.3,100.5,96.2,131.4,1.6.7,3.4.7,5,0Z"/>
    <path class="st1" d="M418.1,419v47.6c0,9.6-8.2,17.4-18.4,17.4H103.7c-18.9,0-34.2-14.5-34.2-32.5,0-8.7,3.7-17,10-23,6.6-6.2,15.2-9.6,24.2-9.5h314.4ZM352.8,131.4c8.3,42.7-18.1,99.8-96.2,131.4-1.6.7-3.4.7-5,0-77.9-30.9-104.5-88.2-96.2-131.4,5.5-29.1,25.9-47.7,52.3-47.7s30.6,6,46.5,17.8c15.6-11.3,31.7-17.3,46.2-17.3,26.4,0,46.7,18.6,52.5,47.2Z"/>
  </g>
  <g>
    <path d="M424.2,20H87.8c-14.5,0-26.8,11.4-26.8,25.4v406.1c0,22.3,19.4,40.5,42.7,40.5h296c14.5,0,26.3-11.4,26.3-25.4v-39.6c14-.9,25-11.9,25-25.3V45.4c0-14-12.3-25.4-26.8-25.4ZM410,466.6c0,5.2-4.6,9.4-10.3,9.4H103.7c-14.5,0-26.2-11-26.2-24.5,0-6.5,2.8-12.7,7.5-17.2,5.1-4.8,11.8-7.4,18.7-7.3h306.3v39.6ZM435,401.6c0,5.2-5.1,9.4-10.8,9.4H103.7c-9.6,0-18.9,3.1-26.7,8.8V45.4c0-5.2,5.1-9.4,10.8-9.4h336.4c5.7,0,10.8,4.2,10.8,9.4v356.2Z"/>
    <path d="M379.5,340h-247.1c-4.4,0-8,3.6-8,8s3.6,8,8,8h247.1c4.4,0,8-3.6,8-8s-3.6-8-8-8ZM379.5,290h-247.1c-4.4,0-8,3.6-8,8s3.6,8,8,8h247.1c4.4,0,8-3.6,8-8s-3.6-8-8-8Z"/>
    <path d="M248.6,270.2c.1,0,.3.1.4.2,3.3,1.2,6.8,1.2,10.1,0,.2,0,.3-.1.5-.2,82.2-33.3,110-94.5,101.1-140.3h0c-6.6-32.6-30.3-53.7-60.4-53.7s-30.7,5.4-46.2,15.6c-15.7-10.7-31.3-16.1-46.5-16.1-30.3,0-53.9,21.3-60.1,54.2-8.9,46.4,18.9,107.7,101.1,140.4ZM163.1,132.9c4.8-25.4,21.8-41.2,44.4-41.2s27.4,5.6,41.7,16.3c2.8,2.1,6.6,2.1,9.5,0,14.2-10.3,28.6-15.8,41.5-15.8,22.5,0,39.6,15.6,44.7,40.8,10.6,54.5-38,100.6-90.9,122.2-73.4-29.3-98.5-82.5-90.9-122.3Z"/>
  </g>
</svg>